<svg width="60" height="61" viewBox="0 0 60 61" fill="none" xmlns="http://www.w3.org/2000/svg">
<path fill-rule="evenodd" clip-rule="evenodd" d="M14 -8.74227e-08L14 11L12 11L12 0L14 -8.74227e-08Z" fill="#2038A8"/>
<path fill-rule="evenodd" clip-rule="evenodd" d="M31 -7.19952e-08L31 11L29 11L29 0L31 -7.19952e-08Z" fill="#2038A8"/>
<path fill-rule="evenodd" clip-rule="evenodd" d="M48 -7.19952e-08L48 11L46 11L46 0L48 -7.19952e-08Z" fill="#2038A8"/>
<path fill-rule="evenodd" clip-rule="evenodd" d="M0 13C0 8.02944 4.02944 4 9 4H51C55.9706 4 60 8.02944 60 13V51.1333C60 56.1039 55.9706 60.1333 51 60.1333H9C4.02944 60.1333 0 56.1039 0 51.1333V13ZM9 6C5.13401 6 2 9.13401 2 13V51.1333C2 54.9993 5.13401 58.1333 9 58.1333H51C54.866 58.1333 58 54.9993 58 51.1333V13C58 9.13401 54.866 6 51 6H9Z" fill="#2038A8"/>
<path fill-rule="evenodd" clip-rule="evenodd" d="M9 19C9 18.4477 9.44772 18 10 18H49.9555C50.5078 18 50.9555 18.4477 50.9555 19L50.9556 39.6222C50.9556 39.8874 50.8502 40.1418 50.6627 40.3293C50.4751 40.5169 50.2208 40.6222 49.9556 40.6222H37.4222V49.9327C37.4222 50.485 36.9745 50.9333 36.4222 50.9333H10C9.44772 50.9333 9 50.4856 9 49.9333V19ZM35.4222 48.9333V40.6222H11V48.9333H35.4222ZM11 38.6222H35.4222V20H11V38.6222ZM37.4222 20V38.6222H48.9556L48.9555 20H37.4222Z" fill="#2038A8"/>
<path fill-rule="evenodd" clip-rule="evenodd" d="M21.9111 50.1112V19.8223H23.9111V50.1112H21.9111Z" fill="#2038A8"/>
<path fill-rule="evenodd" clip-rule="evenodd" d="M9 30L9 28L49.9989 28C49.9991 28 50 28 50 29C50 30 49.9999 30 49.9997 30L9 30Z" fill="#2038A8"/>
</svg>
