<svg width="26" height="26" viewBox="0 0 26 26" fill="none" xmlns="http://www.w3.org/2000/svg">
<path fill-rule="evenodd" clip-rule="evenodd" d="M5.7587 4.31292e-07H20.2413C21.0463 -1.23241e-05 21.7106 -2.28137e-05 22.2518 0.0441945C22.8139 0.0901197 23.3306 0.188684 23.816 0.435975C24.5686 0.819468 25.1805 1.43139 25.564 2.18404C25.8113 2.66937 25.9099 3.18608 25.9558 3.74817C26 4.28936 26 4.95372 26 5.75868V20.2413C26 21.0463 26 21.7106 25.9558 22.2518C25.9099 22.8139 25.8113 23.3306 25.564 23.816C25.1805 24.5686 24.5686 25.1805 23.816 25.564C23.3306 25.8113 22.8139 25.9099 22.2518 25.9558C21.7106 26 21.0463 26 20.2413 26H5.75868C4.95372 26 4.28936 26 3.74817 25.9558C3.18608 25.9099 2.66937 25.8113 2.18404 25.564C1.43139 25.1805 0.819468 24.5686 0.435975 23.816C0.188684 23.3306 0.0901197 22.8139 0.0441945 22.2518C-2.28137e-05 21.7106 -1.23241e-05 21.0463 4.31292e-07 20.2413V5.7587C-1.23241e-05 4.95373 -2.28137e-05 4.28937 0.0441945 3.74817C0.0901197 3.18608 0.188684 2.66937 0.435975 2.18404C0.819468 1.43139 1.43139 0.819468 2.18404 0.435975C2.66937 0.188684 3.18608 0.0901197 3.74817 0.0441945C4.28937 -2.28137e-05 4.95373 -1.23241e-05 5.7587 4.31292e-07ZM3.91104 2.03755C3.47262 2.07337 3.24842 2.1383 3.09202 2.21799C2.7157 2.40973 2.40973 2.7157 2.21799 3.09202C2.1383 3.24842 2.07337 3.47262 2.03755 3.91104C2.00078 4.36113 2 4.94342 2 5.8V20.2C2 21.0566 2.00078 21.6389 2.03755 22.089C2.07337 22.5274 2.1383 22.7516 2.21799 22.908C2.40973 23.2843 2.7157 23.5903 3.09202 23.782C3.24842 23.8617 3.47262 23.9266 3.91104 23.9624C4.36113 23.9992 4.94342 24 5.8 24H20.2C21.0566 24 21.6389 23.9992 22.089 23.9624C22.5274 23.9266 22.7516 23.8617 22.908 23.782C23.2843 23.5903 23.5903 23.2843 23.782 22.908C23.8617 22.7516 23.9266 22.5274 23.9624 22.089C23.9992 21.6389 24 21.0566 24 20.2V5.8C24 4.94342 23.9992 4.36113 23.9624 3.91104C23.9266 3.47262 23.8617 3.24842 23.782 3.09202C23.5903 2.7157 23.2843 2.40973 22.908 2.21799C22.7516 2.1383 22.5274 2.07337 22.089 2.03755C21.6389 2.00078 21.0566 2 20.2 2H5.8C4.94342 2 4.36113 2.00078 3.91104 2.03755Z" fill="#B9CEF1"/>
</svg>
