<svg width="26" height="26" viewBox="0 0 26 26" fill="none" xmlns="http://www.w3.org/2000/svg">
<path d="M1 5.8C1 4.11984 1 3.27976 1.32698 2.63803C1.6146 2.07354 2.07354 1.6146 2.63803 1.32698C3.27976 1 4.11984 1 5.8 1H20.2C21.8802 1 22.7202 1 23.362 1.32698C23.9265 1.6146 24.3854 2.07354 24.673 2.63803C25 3.27976 25 4.11984 25 5.8V20.2C25 21.8802 25 22.7202 24.673 23.362C24.3854 23.9265 23.9265 24.3854 23.362 24.673C22.7202 25 21.8802 25 20.2 25H5.8C4.11984 25 3.27976 25 2.63803 24.673C2.07354 24.3854 1.6146 23.9265 1.32698 23.362C1 22.7202 1 21.8802 1 20.2V5.8Z" fill="white"/>
<path d="M1 5.8C1 4.11984 1 3.27976 1.32698 2.63803C1.6146 2.07354 2.07354 1.6146 2.63803 1.32698C3.27976 1 4.11984 1 5.8 1H20.2C21.8802 1 22.7202 1 23.362 1.32698C23.9265 1.6146 24.3854 2.07354 24.673 2.63803C25 3.27976 25 4.11984 25 5.8V20.2C25 21.8802 25 22.7202 24.673 23.362C24.3854 23.9265 23.9265 24.3854 23.362 24.673C22.7202 25 21.8802 25 20.2 25H5.8C4.11984 25 3.27976 25 2.63803 24.673C2.07354 24.3854 1.6146 23.9265 1.32698 23.362C1 22.7202 1 21.8802 1 20.2V5.8Z" fill="#EFF4FF"/>
<path d="M1 5.8C1 4.11984 1 3.27976 1.32698 2.63803C1.6146 2.07354 2.07354 1.6146 2.63803 1.32698C3.27976 1 4.11984 1 5.8 1H20.2C21.8802 1 22.7202 1 23.362 1.32698C23.9265 1.6146 24.3854 2.07354 24.673 2.63803C25 3.27976 25 4.11984 25 5.8V20.2C25 21.8802 25 22.7202 24.673 23.362C24.3854 23.9265 23.9265 24.3854 23.362 24.673C22.7202 25 21.8802 25 20.2 25H5.8C4.11984 25 3.27976 25 2.63803 24.673C2.07354 24.3854 1.6146 23.9265 1.32698 23.362C1 22.7202 1 21.8802 1 20.2V5.8Z" stroke="#EFF4FF" stroke-width="2"/>
<path d="M5 12.8979L10.3393 18L22 6" stroke="#B0B8CC" stroke-width="2"/>
</svg>
