<svg width="31" height="30" viewBox="0 0 31 30" fill="none" xmlns="http://www.w3.org/2000/svg">
<path d="M15.6241 0C7.50132 0 0.916016 6.71601 0.916016 15C0.916016 23.284 7.50132 30 15.6241 30C23.7468 30 30.3321 23.284 30.3321 15C30.3321 6.71601 23.7468 0 15.6241 0ZM8.89686 8.8582H22.3513C22.5986 8.8582 22.8404 8.93243 23.0465 9.07163C23.2527 9.21084 23.4141 9.40886 23.5107 9.64102L15.6718 15.2725L7.76044 9.58887C7.86287 9.37006 8.02397 9.18531 8.22509 9.056C8.4262 8.92669 8.65912 8.85812 8.89686 8.8582ZM23.6101 19.858C23.6101 20.1985 23.4775 20.525 23.2414 20.7658C23.0053 21.0065 22.6851 21.1418 22.3513 21.1418H8.89686C8.56301 21.1418 8.24283 21.0065 8.00675 20.7658C7.77068 20.525 7.63806 20.1985 7.63806 19.858V11.6508L15.1759 17.066C15.3212 17.1703 15.4944 17.2263 15.6721 17.2263C15.8497 17.2263 16.0229 17.1703 16.1682 17.066L23.6101 11.7188V19.858Z" fill="#000"/>
</svg>
