<svg width="30" height="30" viewBox="0 0 30 30" fill="none" xmlns="http://www.w3.org/2000/svg">
<path d="M14.6748 0.0585938C6.58361 0.0585938 0.0239258 6.74848 0.0239258 15.0002C0.0239258 23.252 6.58361 29.9419 14.6748 29.9419C22.7659 29.9419 29.3256 23.252 29.3256 15.0002C29.3256 6.74848 22.7659 0.0585938 14.6748 0.0585938ZM22.9445 21.7205C22.5095 22.1681 22.0454 22.5959 21.6345 23.0629C21.0336 23.7493 20.2839 23.9716 19.4214 23.922C18.1675 23.852 17.0149 23.4288 15.9018 22.8779C13.4559 21.6665 11.2905 19.9386 9.54926 17.8088C8.23927 16.2218 7.15877 14.4907 6.44912 12.5419C6.1023 11.6004 5.85679 10.6345 5.93405 9.61073C5.98212 8.98155 6.21219 8.44342 6.66774 8.00334C7.15934 7.52649 7.6229 7.02863 8.10649 6.5442C8.73602 5.91093 9.52579 5.91093 10.1588 6.54011C10.5496 6.93058 10.9325 7.32922 11.3194 7.72435C11.6942 8.11073 12.0697 8.48894 12.4445 8.87533C13.1055 9.55354 13.1055 10.3432 12.4485 11.0173C11.9769 11.5024 11.5088 11.9874 11.0292 12.4601C10.9045 12.588 10.8924 12.6907 10.9565 12.8471C11.2753 13.6199 11.7309 14.3063 12.2425 14.9483C13.2726 16.2393 14.4395 17.3862 15.8308 18.2786C16.129 18.4677 16.4603 18.6072 16.7699 18.78C16.9273 18.8705 17.0361 18.8419 17.1648 18.7059C17.6364 18.2127 18.1166 17.7277 18.5956 17.2426C19.2251 16.6053 20.0143 16.6053 20.6473 17.2426C21.4176 18.0236 22.1862 18.8061 22.9531 19.5901C23.5935 20.2485 23.5894 21.0539 22.9445 21.7205Z" fill="#000"/>
</svg>
