<svg width="30" height="30" viewBox="0 0 30 30" fill="none" xmlns="http://www.w3.org/2000/svg">
<path d="M29.4161 15C29.4161 6.71719 22.8297 0 14.7081 0C6.58645 0 0 6.71719 0 15C0 23.2828 6.58645 30 14.7081 30C14.7942 30 14.8804 30 14.9666 29.9965V18.3199H11.8067V14.5641H14.9666V11.8002C14.9666 8.59512 16.885 6.8502 19.6887 6.8502C20.635 6.84706 21.5807 6.89635 22.5217 6.99785V10.3482H20.5884C19.063 10.3482 18.7677 11.0871 18.7677 12.1717V14.5641H22.4149L21.9397 18.3199H18.7677V29.4205C24.9158 27.6229 29.4161 21.8467 29.4161 15Z" fill="#6E6E6E"/>
</svg>
