<svg width="60" height="61" viewBox="0 0 60 61" fill="none" xmlns="http://www.w3.org/2000/svg">
<path d="M13 1L13 10" stroke="#4971D0" stroke-width="2" stroke-linecap="square"/>
<path d="M30 1L30 10" stroke="#4971D0" stroke-width="2" stroke-linecap="square"/>
<path d="M47 1L47 10" stroke="#4971D0" stroke-width="2" stroke-linecap="square"/>
<rect x="1" y="5" width="58" height="54.1333" rx="8" stroke="#4971D0" stroke-width="2"/>
<path d="M36.4222 39.6222C36.4222 43.649 36.4222 49.9333 36.4222 49.9333H10V39.6222M36.4222 39.6222C41.7073 39.6222 49.9556 39.6222 49.9556 39.6222L49.9555 19H36.4222M36.4222 39.6222C26.1037 39.6222 10 39.6222 10 39.6222M36.4222 39.6222V19M10 39.6222V19H36.4222" stroke="#4971D0" stroke-width="2" stroke-linejoin="round"/>
<path d="M22.9111 19.8223V50.1112" stroke="#4971D0" stroke-width="2"/>
<path d="M9 29C25.0115 29 50 29 50 29" stroke="#4971D0" stroke-width="2"/>
</svg>
