<svg width="41" height="46" viewBox="0 0 41 46" fill="none" xmlns="http://www.w3.org/2000/svg">
<path d="M8 7V3C8 1.89543 8.89543 1 10 1H31.1716C31.702 1 32.2107 1.21071 32.5858 1.58579L39.4142 8.41421C39.7893 8.78929 40 9.29799 40 9.82843V43C40 44.1046 39.1046 45 38 45H10C8.89543 45 8 44.1046 8 43V19M3 7H24C25.1046 7 26 7.89543 26 9V17C26 18.1046 25.1046 19 24 19H3C1.89543 19 1 18.1046 1 17V9C1 7.89543 1.89543 7 3 7Z" stroke="#4971D0" stroke-width="1.5"/>
<path d="M31 1L31 7.5C31 8.60457 31.8954 9.5 33 9.5H40" stroke="#4971D0" stroke-width="1.5"/>
<path d="M5 16.75V10.25H7.125C8.16053 10.25 9 11.0895 9 12.125V12.125C9 13.1605 8.16053 14 7.125 14H5.4" stroke="#4971D0" stroke-width="1.5"/>
<path d="M13.375 16H11.75V10.25H13.375C14.9628 10.25 16.25 11.5372 16.25 13.125C16.25 14.7128 14.9628 16 13.375 16Z" stroke="#4971D0" stroke-width="1.5"/>
<path d="M19 16.75V13.5M23 10.25H19V13.5M22.5556 13.5H19" stroke="#4971D0" stroke-width="1.5"/>
<path d="M21 35.3507C22.3333 32.3507 24.4339 26.0862 24 24.3507C23.5 22.3512 20.5 22.3522 20.5 25.8516C20.5 28.852 28 36.3512 30.5 36.3511C33 36.3511 32.5 33.351 30.5 33.351C28.5 33.351 14 36.851 14 40.351C14 42.851 19.5 39.3505 21 35.3507Z" stroke="#4971D0" stroke-width="1.5"/>
</svg>
