<svg width="35" height="38" viewBox="0 0 35 38" fill="none" xmlns="http://www.w3.org/2000/svg">
<path fill-rule="evenodd" clip-rule="evenodd" d="M7.95529 28.5043C0.838441 20.42 0 12.8438 0 12.8438C0 12.8438 1.23747 9.77475 5.67811 5.72639C6.056 5.38188 6.62249 5.41024 6.96114 5.79815C9.55282 8.76676 10.9958 11.8421 11.5411 13.1533C11.7042 13.5452 11.5956 13.9944 11.291 14.275L8.39406 16.9438C8.39406 16.9438 9.02249 20.7295 12.4935 24.6632C16.1873 28.3373 19.7368 29.0032 19.7368 29.0032L22.2472 25.9235C22.5112 25.5997 22.9337 25.4843 23.3024 25.6576C24.5357 26.2374 27.4287 27.7713 30.2211 30.5265C30.586 30.8865 30.6127 31.4887 30.2886 31.8904C26.4805 36.6111 23.5935 37.9267 23.5935 37.9267C23.5935 37.9267 16.4668 37.0353 8.86218 29.4696L8.8478 29.4849C8.70113 29.329 8.55686 29.1731 8.41496 29.0174C8.25668 28.8548 8.09826 28.6893 7.93975 28.5208L7.95529 28.5043Z" fill="#FFA400"/>
<path d="M16.6279 8.91211V8.91211C21.9127 8.91211 26.1968 13.1962 26.1968 18.481L26.1968 19.0846" stroke="#FFA400" stroke-width="2"/>
<path d="M16.6279 1V1C26.0231 1 33.6393 8.61625 33.6393 18.0114L33.6393 19.0843" stroke="#FFA400" stroke-width="2"/>
</svg>
