<svg width="35" height="38" viewBox="0 0 35 38" fill="none" xmlns="http://www.w3.org/2000/svg">
<path fill-rule="evenodd" clip-rule="evenodd" d="M7.95529 28.5042C0.838441 20.4199 0 12.8436 0 12.8436C0 12.8436 1.23747 9.77463 5.67811 5.72627C6.056 5.38175 6.62249 5.41012 6.96114 5.79802C9.55282 8.76664 10.9958 11.842 11.5411 13.1531C11.7042 13.5451 11.5956 13.9943 11.291 14.2749L8.39406 16.9436C8.39406 16.9436 9.02249 20.7294 12.4935 24.6631C16.1873 28.3371 19.7368 29.003 19.7368 29.003L22.2472 25.9234C22.5112 25.5995 22.9337 25.4841 23.3024 25.6574C24.5357 26.2372 27.4287 27.7712 30.2211 30.5263C30.586 30.8863 30.6127 31.4886 30.2886 31.8903C26.4805 36.611 23.5935 37.9265 23.5935 37.9265C23.5935 37.9265 16.4668 37.0352 8.86218 29.4695L8.8478 29.4848C8.70113 29.3289 8.55687 29.173 8.41497 29.0173C8.25669 28.8547 8.09827 28.6892 7.93975 28.5207L7.95529 28.5042Z" fill="#8CCA11"/>
<path d="M16.6283 8.91187V8.91187C21.913 8.91187 26.1972 13.196 26.1972 18.4807L26.1972 19.0843" stroke="#8CCA11" stroke-width="2"/>
<path d="M16.6283 1V1C26.0234 1 33.6397 8.61625 33.6397 18.0114L33.6397 19.0843" stroke="#8CCA11" stroke-width="2"/>
</svg>
