<svg width="179" height="34" viewBox="0 0 179 34" fill="none" xmlns="http://www.w3.org/2000/svg">
<path fill-rule="evenodd" clip-rule="evenodd" d="M0 0H33.9749V33.9681H0V0Z" fill="#2038A8"/>
<path fill-rule="evenodd" clip-rule="evenodd" d="M14.6042 18.3931C16.3346 19.5406 18.2442 20.3918 20.2545 20.9114C18.8106 21.5865 17.5148 22.5411 16.442 23.72C15.3692 24.8989 14.5407 26.2787 14.0044 27.7797H8.63568C9.53192 24.0767 11.631 20.7755 14.6042 18.3931Z" fill="#FFA400"/>
<path fill-rule="evenodd" clip-rule="evenodd" d="M8.53497 6.1748H14.0754C14.8309 8.56391 16.3273 10.6505 18.3479 12.1323C20.3685 13.6141 22.8084 14.4142 25.3141 14.4167V19.7991C21.3797 19.7943 17.5663 18.4383 14.5119 15.9583C11.4576 13.4782 9.34756 10.0244 8.53497 6.1748Z" fill="white"/>
<path d="M51.2395 16.1473C50.7777 15.8364 50.2724 15.5956 49.7399 15.433C49.2362 15.2804 48.8425 15.1781 48.5586 15.1262C47.6092 14.8836 46.84 14.6851 46.2509 14.531C45.7808 14.4126 45.3214 14.2556 44.8772 14.0617C44.6097 13.9586 44.377 13.7815 44.2064 13.5511C44.0845 13.3301 44.0259 13.0798 44.037 12.8277C44.0258 12.5431 44.1 12.2616 44.2499 12.0195C44.392 11.8068 44.5768 11.6259 44.7925 11.4884C45.0165 11.3452 45.2648 11.2443 45.5251 11.1907C45.7916 11.1342 46.0632 11.1058 46.3356 11.106C46.7197 11.1025 47.1032 11.1378 47.4803 11.2113C47.8046 11.2765 48.1147 11.3989 48.396 11.5731C48.6688 11.7478 48.892 11.9898 49.0439 12.2759C49.2204 12.6261 49.3189 13.0104 49.3324 13.4023H52.5651C52.588 12.6246 52.4165 11.8534 52.066 11.1587C51.7412 10.5524 51.2785 10.0309 50.7152 9.63622C50.1249 9.2307 49.4642 8.93878 48.7669 8.7754C48.017 8.59629 47.2485 8.50714 46.4775 8.50982C45.7875 8.51054 45.1006 8.60371 44.4353 8.78685C43.7791 8.95861 43.1589 9.24625 42.6038 9.63622C42.0694 10.0156 41.6235 10.506 41.2966 11.074C40.9514 11.694 40.779 12.3953 40.7975 13.1047C40.7751 13.6824 40.8929 14.257 41.1409 14.7793C41.3888 15.3016 41.7596 15.756 42.2215 16.1038C42.6624 16.439 43.1498 16.7082 43.6684 16.9028C44.211 17.1083 44.7653 17.2818 45.3282 17.4225C45.88 17.5782 46.4271 17.7202 46.9652 17.8484C47.4576 17.962 47.9412 18.1112 48.4121 18.2948C48.7941 18.4393 49.1447 18.6562 49.4446 18.9335C49.5759 19.064 49.6787 19.2202 49.7465 19.3925C49.8143 19.5647 49.8456 19.7491 49.8384 19.934C49.8513 20.2741 49.7461 20.6082 49.5407 20.8795C49.3402 21.1295 49.0848 21.3301 48.7944 21.4656C48.492 21.6095 48.1692 21.706 47.8374 21.7518C47.5207 21.8004 47.2009 21.8257 46.8804 21.8274C46.4503 21.8279 46.0219 21.774 45.6052 21.6671C45.2194 21.5716 44.8546 21.4055 44.5292 21.1772C44.2199 20.9527 43.9688 20.6575 43.7966 20.3164C43.6006 19.9124 43.5055 19.467 43.5196 19.0183H40.2846C40.2481 19.8565 40.4237 20.6904 40.7952 21.4427C41.1347 22.1087 41.6265 22.6852 42.2306 23.1255C42.8581 23.5758 43.5649 23.9035 44.314 24.0916C45.1094 24.2986 45.9281 24.4025 46.7499 24.4007C47.674 24.4156 48.5951 24.2937 49.4835 24.0389C50.2027 23.8336 50.8752 23.4907 51.4639 23.0293C51.9797 22.616 52.3913 22.0875 52.6658 21.4862C52.937 20.8769 53.0744 20.2164 53.0687 19.5494C53.099 18.8128 52.9102 18.0838 52.5261 17.4546C52.1911 16.9355 51.7532 16.4906 51.2395 16.1473Z" fill="black"/>
<path d="M57.833 13.061H54.8132V24.0594H57.833V13.061Z" fill="black"/>
<path d="M57.833 8.87158H54.8132V11.3602H57.833V8.87158Z" fill="black"/>
<path d="M75.6423 13.6586C75.2747 13.3362 74.8387 13.1014 74.3671 12.9718C73.8409 12.8259 73.2968 12.7542 72.7508 12.7589C72.0473 12.7416 71.3546 12.9345 70.7613 13.3129C70.2382 13.6462 69.7861 14.0795 69.4311 14.5881C69.1882 13.9671 68.722 13.4592 68.1239 13.1641C67.527 12.8891 66.8762 12.7506 66.2191 12.7589C65.5485 12.7431 64.8853 12.9008 64.2937 13.2168C63.72 13.5399 63.2287 13.9912 62.8582 14.5355H62.8147V13.0451H59.9575V24.0343H62.9796V17.6789C62.9608 17.231 63.0389 16.7843 63.2085 16.3693C63.3356 16.0749 63.5282 15.8133 63.7717 15.6046C63.9724 15.4368 64.2065 15.3135 64.4585 15.2429C64.6414 15.187 64.8306 15.1547 65.0217 15.1468C65.4024 15.1228 65.7819 15.2078 66.1161 15.3917C66.3571 15.5468 66.5436 15.7733 66.6495 16.0396C66.7575 16.3223 66.8179 16.6209 66.8281 16.9233C66.8441 17.2416 66.851 17.5644 66.851 17.8918V24.0595H69.8707V17.933C69.8706 17.595 69.8959 17.2575 69.9462 16.9233C69.9885 16.6097 70.0894 16.3067 70.2439 16.0305C70.3916 15.7687 70.6035 15.5489 70.8597 15.3917C71.1745 15.2158 71.532 15.1309 71.8923 15.1468C72.2415 15.1296 72.5893 15.203 72.9019 15.3597C73.1419 15.4926 73.3383 15.6922 73.4674 15.9343C73.5985 16.1997 73.6763 16.4883 73.6963 16.7837C73.7238 17.1118 73.7375 17.4598 73.7375 17.8277V24.0595H76.7596V16.6921C76.7738 16.073 76.6729 15.4566 76.4619 14.8743C76.2893 14.4097 76.0083 13.9929 75.6423 13.6586Z" fill="black"/>
<path d="M88.6142 14.5513C88.2 14.0083 87.6697 13.5648 87.0619 13.2532C86.3685 12.9116 85.6025 12.7435 84.8297 12.7633C84.183 12.7557 83.5428 12.8942 82.957 13.1685C82.3717 13.4538 81.8836 13.9053 81.5536 14.4666H81.5101V13.0609H78.6392V27.9101H81.6589V22.6994H81.7024C82.0571 23.2253 82.5454 23.6473 83.1173 23.9219C83.7048 24.2017 84.3485 24.3435 84.9992 24.3363C85.7309 24.3563 86.4566 24.1992 87.1146 23.8784C87.7055 23.5771 88.2217 23.1477 88.6256 22.6215C89.042 22.0825 89.3527 21.4696 89.5414 20.8152C89.7415 20.124 89.8418 19.4078 89.839 18.6883C89.8423 17.9296 89.7422 17.174 89.5414 16.4424C89.3579 15.7579 89.043 15.1156 88.6142 14.5513ZM86.6796 19.8971C86.6055 20.2937 86.4571 20.6728 86.2423 21.0144C86.0378 21.333 85.7609 21.599 85.4341 21.7905C84.8896 22.1072 84.2444 22.2032 83.6312 22.0588C83.0181 21.9145 82.4835 21.5407 82.1374 21.0144C81.9222 20.672 81.771 20.2935 81.691 19.8971C81.5993 19.4705 81.5532 19.0354 81.5536 18.599C81.5522 18.1564 81.5944 17.7147 81.6795 17.2803C81.7552 16.8813 81.9034 16.4995 82.1168 16.1539C82.3205 15.8284 82.5972 15.5549 82.9249 15.3549C83.3028 15.1393 83.7333 15.0331 84.1681 15.0481C84.5969 15.0347 85.0211 15.1409 85.3929 15.3549C85.7235 15.5592 86.0036 15.8355 86.2126 16.1631C86.4315 16.5146 86.5866 16.9022 86.6704 17.3078C86.7629 17.7343 86.8097 18.1695 86.8101 18.6059C86.8089 19.0395 86.7652 19.472 86.6796 19.8971Z" fill="black"/>
<path d="M94.7407 8.87158H91.7209V24.0596H94.7407V8.87158Z" fill="black"/>
<path d="M106.366 14.7644C105.917 14.1511 105.331 13.6516 104.654 13.306C103.892 12.9279 103.05 12.7416 102.2 12.7634C101.414 12.7527 100.634 12.9047 99.9102 13.2099C99.2424 13.496 98.6384 13.9124 98.1336 14.4347C97.6326 14.962 97.2433 15.5849 96.9889 16.2662C96.7172 16.9987 96.5807 17.7744 96.5859 18.5557C96.5764 19.3529 96.7097 20.1453 96.9797 20.8955C97.2225 21.5762 97.6028 22.1996 98.0969 22.727C98.5908 23.2464 99.1936 23.6498 99.8621 23.9083C100.607 24.1988 101.4 24.3441 102.2 24.3364C103.328 24.3726 104.443 24.0765 105.405 23.4848C106.284 22.9185 106.936 21.9761 107.36 20.6574H104.697C104.546 21.0622 104.261 21.4031 103.889 21.6235C103.425 21.9371 102.874 22.0972 102.314 22.0814C101.465 22.0814 100.814 21.8616 100.359 21.422C99.9041 20.9824 99.6553 20.2735 99.6125 19.2951H107.548C107.607 18.4732 107.536 17.647 107.335 16.8478C107.15 16.0971 106.821 15.3895 106.366 14.7644ZM99.6125 17.3789C99.6333 17.1335 99.6801 16.891 99.7522 16.6554C99.8356 16.3761 99.9725 16.1157 100.155 15.8885C100.365 15.6341 100.626 15.4272 100.922 15.2818C101.298 15.1074 101.71 15.0242 102.124 15.0391C102.861 15.0391 103.411 15.236 103.772 15.6344C104.181 16.1346 104.443 16.7386 104.528 17.3789H99.6125Z" fill="black"/>
<path d="M109.718 24.0596H111.165V16.8273H118.438V15.5933H111.165V10.1056H119.354V8.87158H109.718V24.0596Z" fill="black"/>
<path d="M122.246 13.084H120.906V24.0617H122.246V13.084Z" fill="black"/>
<path d="M122.246 8.87158H120.906V11.0213H122.246V8.87158Z" fill="black"/>
<path d="M132.862 13.9014C132.524 13.5219 132.097 13.2331 131.619 13.0612C131 12.8474 130.348 12.7465 129.693 12.7636C128.934 12.7584 128.188 12.9688 127.543 13.3703C126.919 13.7354 126.435 14.2998 126.17 14.9729H126.129V13.0795H124.789V24.055H126.129V17.6446C126.138 17.1339 126.228 16.6279 126.394 16.145C126.545 15.7081 126.778 15.3041 127.081 14.9545C127.376 14.6192 127.739 14.3507 128.146 14.167C128.598 13.9695 129.088 13.8719 129.581 13.8808C130.044 13.8659 130.506 13.9526 130.932 14.1349C131.275 14.291 131.573 14.5331 131.795 14.8378C132.019 15.1532 132.175 15.5119 132.253 15.8909C132.34 16.3212 132.382 16.7592 132.379 17.1982V24.0481H133.72V16.9967C133.727 16.4028 133.662 15.8102 133.528 15.2316C133.415 14.7413 133.187 14.2852 132.862 13.9014Z" fill="black"/>
<path d="M144.604 22.125V16.2961C144.628 15.6768 144.504 15.0607 144.242 14.4989C144.028 14.066 143.705 13.6955 143.306 13.4229C142.913 13.1644 142.473 12.9876 142.01 12.9032C141.533 12.8115 141.049 12.7648 140.563 12.7636C139.975 12.7573 139.388 12.8289 138.819 12.9765C138.322 13.1045 137.856 13.3285 137.445 13.6358C137.054 13.9403 136.741 14.3324 136.529 14.7805C136.289 15.3025 136.152 15.8662 136.126 16.4404H137.457C137.484 15.5475 137.768 14.8988 138.308 14.4944C138.917 14.0681 139.649 13.8549 140.392 13.8877C140.766 13.8857 141.14 13.9178 141.509 13.9838C141.834 14.0383 142.146 14.1574 142.425 14.3341C142.687 14.5045 142.9 14.7415 143.041 15.0209C143.204 15.3701 143.282 15.7529 143.269 16.1382C143.278 16.3846 143.238 16.6304 143.153 16.8616C143.082 17.0328 142.969 17.1827 142.823 17.2966C142.665 17.4121 142.482 17.4903 142.29 17.5256C142.077 17.5668 141.832 17.6034 141.546 17.6309C140.822 17.7163 140.109 17.8049 139.407 17.8964C138.759 17.9762 138.123 18.137 137.514 18.3749C136.984 18.5799 136.518 18.9211 136.163 19.364C135.824 19.7967 135.653 20.3965 135.653 21.1634C135.641 21.6574 135.739 22.1479 135.941 22.5989C136.121 22.9893 136.391 23.3314 136.729 23.5971C137.074 23.8678 137.473 24.0635 137.899 24.1717C138.367 24.2955 138.85 24.3563 139.334 24.3526C139.802 24.3612 140.27 24.3112 140.726 24.2038C141.093 24.1145 141.445 23.9718 141.77 23.7802C142.078 23.5934 142.358 23.3619 142.599 23.0934C142.864 22.7948 143.11 22.4789 143.334 22.1479H143.375C143.373 22.4075 143.391 22.6669 143.427 22.924C143.458 23.1407 143.536 23.3479 143.656 23.5307C143.775 23.705 143.941 23.8416 144.135 23.9245C144.396 24.026 144.675 24.0727 144.954 24.0618C145.107 24.0633 145.26 24.0564 145.412 24.0412C145.531 24.0275 145.671 24.0069 145.827 23.9771V22.8507C145.692 22.9077 145.547 22.9366 145.401 22.9354C144.871 22.9339 144.606 22.6638 144.604 22.125ZM143.265 19.8058C143.273 20.3053 143.168 20.8002 142.956 21.2527C142.758 21.6679 142.475 22.0374 142.127 22.3379C141.768 22.6449 141.352 22.8782 140.902 23.0247C140.429 23.1798 139.933 23.2571 139.435 23.2537C139.123 23.2548 138.814 23.2045 138.519 23.1049C138.231 23.0113 137.964 22.8636 137.731 22.6699C137.506 22.4795 137.322 22.2459 137.189 21.983C137.048 21.6988 136.979 21.3844 136.987 21.0673C136.973 20.8379 137.009 20.6081 137.091 20.3936C137.174 20.1791 137.302 19.9849 137.466 19.8241C137.819 19.5135 138.237 19.2845 138.688 19.1533C139.227 18.9888 139.778 18.8716 140.337 18.803C140.94 18.7252 141.525 18.6367 142.093 18.5375C142.308 18.5012 142.52 18.4515 142.729 18.3887C142.83 18.3674 142.925 18.3263 143.009 18.2677C143.093 18.2091 143.164 18.1343 143.219 18.0475H143.263L143.265 19.8058Z" fill="black"/>
<path d="M155.326 13.9014C154.988 13.522 154.56 13.2331 154.082 13.0612C153.464 12.8472 152.811 12.7464 152.157 12.7636C151.397 12.7584 150.652 12.9688 150.007 13.3703C149.387 13.7365 148.908 14.301 148.647 14.9729H148.604V13.0795H147.265V24.055H148.604V17.6446C148.613 17.1339 148.703 16.6279 148.869 16.1451C149.021 15.7082 149.254 15.3041 149.556 14.9546C149.851 14.6193 150.214 14.3508 150.621 14.167C151.073 13.9696 151.563 13.872 152.056 13.8808C152.52 13.8659 152.981 13.9527 153.407 14.135C153.75 14.291 154.048 14.5331 154.27 14.8378C154.495 15.1527 154.651 15.5116 154.728 15.8909C154.816 16.3211 154.859 16.7592 154.856 17.1982V24.0481H156.196V16.9967C156.202 16.4028 156.138 15.8102 156.003 15.2316C155.887 14.7403 155.655 14.2841 155.326 13.9014Z" fill="black"/>
<path d="M166.196 21.3808C166.022 21.7488 165.785 22.0835 165.495 22.3698C165.212 22.6448 164.879 22.8645 164.515 23.0177C164.145 23.1721 163.747 23.25 163.345 23.2467C162.76 23.2591 162.181 23.1203 161.665 22.8437C161.191 22.5815 160.781 22.2181 160.463 21.7791C160.137 21.325 159.892 20.8176 159.74 20.2796C159.411 19.1584 159.411 17.9666 159.74 16.8454C159.892 16.3074 160.137 15.8 160.463 15.3459C160.781 14.907 161.191 14.5435 161.665 14.2813C162.181 14.0047 162.76 13.8659 163.345 13.8784C164.238 13.8784 164.933 14.1119 165.431 14.5789C165.958 15.1075 166.314 15.7823 166.452 16.5158H167.791C167.639 15.2551 167.153 14.3118 166.335 13.686C165.472 13.0475 164.419 12.7178 163.345 12.7497C162.579 12.7317 161.819 12.8883 161.122 13.2076C160.496 13.5043 159.941 13.9321 159.495 14.4622C159.046 15.0022 158.707 15.6243 158.496 16.2937C158.042 17.7549 158.042 19.3197 158.496 20.781C158.707 21.4504 159.046 22.0724 159.495 22.6125C159.94 23.141 160.496 23.566 161.122 23.8579C161.82 24.174 162.58 24.3304 163.345 24.3158C164.592 24.3158 165.613 23.9442 166.409 23.2009C167.204 22.4576 167.693 21.4327 167.876 20.1262H166.532C166.496 20.5611 166.382 20.986 166.196 21.3808Z" fill="black"/>
<path d="M178.769 16.6668C178.614 15.961 178.329 15.2903 177.929 14.6887C177.516 14.0722 176.952 13.5716 176.291 13.2346C175.629 12.8976 174.893 12.7354 174.151 12.7633C173.374 12.7434 172.603 12.9156 171.908 13.2647C171.298 13.5785 170.77 14.03 170.365 14.5834C169.96 15.145 169.661 15.7758 169.483 16.4447C169.291 17.1373 169.194 17.8528 169.195 18.5716C169.191 19.3222 169.288 20.0699 169.483 20.7946C169.657 21.4616 169.956 22.0894 170.365 22.6445C170.769 23.1826 171.299 23.614 171.908 23.9014C172.611 24.2215 173.379 24.3781 174.151 24.3592C175.542 24.3592 176.616 24.0189 177.375 23.3382C178.133 22.6574 178.655 21.6936 178.939 20.4466H177.599C177.427 21.2252 177.029 21.9357 176.455 22.4888C175.901 22.9986 175.137 23.2535 174.165 23.2535C173.593 23.2695 173.027 23.1303 172.528 22.8505C172.086 22.5909 171.702 22.2434 171.4 21.8294C171.098 21.4092 170.879 20.9363 170.752 20.4352C170.621 19.946 170.553 19.442 170.55 18.9356H178.996C179.019 18.1727 178.943 17.41 178.769 16.6668ZM170.527 17.8115C170.585 17.3111 170.704 16.8198 170.882 16.3486C171.047 15.8933 171.288 15.4692 171.594 15.094C171.892 14.7319 172.262 14.435 172.679 14.2217C173.135 13.9952 173.638 13.8821 174.147 13.892C174.649 13.8833 175.145 13.9965 175.594 14.2217C176.011 14.435 176.381 14.7319 176.679 15.094C176.98 15.4643 177.212 15.8852 177.366 16.3371C177.53 16.8104 177.619 17.3062 177.631 17.8069L170.527 17.8115Z" fill="black"/>
</svg>
