<svg width="171" height="34" viewBox="0 0 171 34" fill="none" xmlns="http://www.w3.org/2000/svg">
<path fill-rule="evenodd" clip-rule="evenodd" d="M0.764648 33.1287V0.148438H32.9721V33.1287H0.764648ZM8.95108 27.1262H14.0405C14.549 25.6687 15.3345 24.3289 16.3514 23.1842C17.3684 22.0395 18.5967 21.1125 19.9654 20.4568C18.0604 19.9503 16.2504 19.1239 14.6091 18.0113C11.7898 20.3241 9.79978 23.53 8.95108 27.1262ZM14.5256 15.6372C17.4208 18.0424 21.0342 19.3568 24.7618 19.3608V14.1498C22.3865 14.1473 20.0735 13.3704 18.158 11.9315C16.2425 10.4926 14.824 8.4664 14.1078 6.14646H8.85559C9.62895 9.88175 11.6305 13.232 14.5256 15.6372ZM47.9169 15.1368C48.4212 15.2948 48.9001 15.5278 49.3384 15.8282C49.8231 16.1631 50.236 16.5958 50.5517 17.0998C50.9186 17.7098 51.0999 18.418 51.0725 19.134C51.0777 19.7809 50.9474 20.4215 50.6906 21.0125C50.4309 21.5967 50.0406 22.1101 49.5511 22.5109C48.9931 22.959 48.3556 23.2919 47.6738 23.4913C46.8319 23.7398 45.9585 23.8582 45.0825 23.8426C44.3035 23.844 43.5275 23.7439 42.7733 23.5447C42.063 23.3613 41.393 23.0423 40.7983 22.6043C40.2257 22.1776 39.7595 21.6185 39.4375 20.9725C39.0856 20.2411 38.9192 19.4307 38.9535 18.616H42.0158C42.0023 19.0518 42.0924 19.4844 42.2784 19.8765C42.4416 20.2084 42.6797 20.4958 42.9729 20.7146C43.281 20.9365 43.627 21.0971 43.993 21.1882C44.3877 21.293 44.794 21.3453 45.2018 21.3438C45.5055 21.3418 45.8086 21.318 46.109 21.2726C46.4234 21.2264 46.7292 21.132 47.0162 20.9925C47.2909 20.8609 47.5329 20.6671 47.7237 20.4256C47.9182 20.1612 48.0179 19.8361 48.0059 19.5052C48.0126 19.3257 47.9828 19.1466 47.9186 18.9794C47.8543 18.8122 47.7569 18.6605 47.6326 18.5337C47.3487 18.2644 47.0162 18.0545 46.6538 17.9157C46.2081 17.7353 45.7495 17.5904 45.2821 17.4822C44.7721 17.3577 44.2534 17.2199 43.7304 17.0687C43.1964 16.9323 42.6709 16.7631 42.1569 16.5618C41.6658 16.3727 41.2039 16.1121 40.7853 15.7882C40.3825 15.4662 40.0523 15.059 39.8173 14.5943C39.5545 14.0601 39.4262 13.4671 39.444 12.8692C39.4268 12.1804 39.5902 11.4994 39.9171 10.8973C40.2244 10.3459 40.645 9.86947 41.1499 9.50113C41.6764 9.12265 42.2642 8.84266 42.8861 8.67412C43.516 8.50076 44.1655 8.41331 44.8177 8.41401C45.5487 8.41102 46.2774 8.49836 46.988 8.67412C47.6518 8.82933 48.2807 9.11224 48.8414 9.5078C49.3753 9.89025 49.8139 10.3959 50.1219 10.984C50.4539 11.6586 50.6165 12.4074 50.5951 13.1626H47.5306C47.5177 12.7821 47.4244 12.4089 47.2571 12.0689C47.1125 11.7915 46.9011 11.5565 46.6429 11.3863C46.3763 11.2173 46.0823 11.0983 45.7748 11.0351C45.4174 10.9637 45.0538 10.9294 44.6896 10.9328C44.4314 10.9326 44.1739 10.9602 43.9213 11.0151C43.6746 11.0671 43.4392 11.1651 43.2268 11.3041C43.0223 11.4385 42.8471 11.6149 42.7125 11.8221C42.5699 12.057 42.4995 12.3304 42.5106 12.6069C42.5002 12.8517 42.5557 13.0948 42.6712 13.3094C42.8339 13.5316 43.0542 13.7026 43.3072 13.8029C43.7275 13.9932 44.1632 14.1457 44.6093 14.2586C45.1678 14.4113 45.8971 14.604 46.797 14.8367C47.0661 14.8885 47.4394 14.9886 47.9169 15.1368ZM55.589 12.8336H52.7263V23.5136H55.589V12.8336ZM52.7263 8.76306H55.589V11.1796H52.7263V8.76306ZM72.4719 13.4117C72.1229 13.0993 71.7097 12.8713 71.263 12.7448C70.7642 12.6031 70.2484 12.5335 69.7308 12.538C69.064 12.5204 68.4074 12.7069 67.8448 13.0738C67.3483 13.3975 66.9196 13.8192 66.5838 14.3143C66.3541 13.7103 65.912 13.2162 65.3446 12.9293C64.7782 12.6639 64.1616 12.5303 63.5388 12.538C62.9032 12.5226 62.2745 12.6758 61.7136 12.9826C61.1702 13.297 60.7046 13.7351 60.3528 14.2632H60.3116V12.8181H57.603V23.4892H60.4678V17.3155C60.4502 16.8813 60.5242 16.4483 60.6849 16.0461C60.8053 15.7596 60.9879 15.5049 61.2188 15.3014C61.4096 15.1392 61.6314 15.0196 61.8699 14.9501C62.0432 14.8958 62.2226 14.8645 62.4038 14.8567C62.7646 14.8335 63.1245 14.916 63.4412 15.0946C63.67 15.2457 63.8469 15.4666 63.9469 15.726C64.0493 15.9997 64.1065 16.2889 64.1161 16.5819C64.1313 16.8931 64.1379 17.2066 64.1379 17.5223V23.5248H67.0005V17.5667C67.0004 17.2378 67.0243 16.9094 67.0721 16.5841C67.1125 16.2796 67.2082 15.9855 67.3543 15.7171C67.4949 15.4634 67.6957 15.2501 67.9381 15.0968C68.2365 14.926 68.5754 14.8436 68.9169 14.859C69.248 14.8423 69.5777 14.9135 69.874 15.0657C70.1015 15.1948 70.2877 15.3886 70.4101 15.6237C70.5344 15.8822 70.6082 16.1632 70.6271 16.4507C70.6531 16.7664 70.6662 17.1043 70.6662 17.4623V23.5159H73.531V16.3663C73.5447 15.7643 73.4491 15.165 73.2488 14.5989C73.0861 14.1453 72.8197 13.7382 72.4719 13.4117ZM83.2974 13.0181C83.873 13.3215 84.3756 13.7521 84.7689 14.2787C85.175 14.8276 85.4735 15.452 85.6479 16.1172C85.8384 16.8269 85.9333 17.5599 85.93 18.2959C85.9328 18.9946 85.8378 19.6901 85.6479 20.3612C85.469 20.9973 85.1745 21.5932 84.7798 22.1174C84.3968 22.6277 83.9074 23.0439 83.3474 23.3357C82.7236 23.6472 82.0357 23.7997 81.342 23.7803C80.7252 23.7873 80.1149 23.6497 79.558 23.378C79.0155 23.112 78.5523 22.7021 78.2167 22.1908H78.1755V27.2507H75.3129V12.8336H78.0344V14.1964H78.0757C78.3892 13.6519 78.8518 13.2137 79.4061 12.9359C79.9619 12.6713 80.5685 12.5376 81.1814 12.5446C81.9138 12.5247 82.6399 12.6872 83.2974 13.0181ZM82.5205 20.5479C82.7246 20.2165 82.8653 19.8483 82.935 19.463C83.0199 19.0513 83.0649 18.6321 83.0696 18.2114C83.0692 17.7876 83.0248 17.365 82.9372 16.9509C82.8585 16.5568 82.7114 16.1803 82.5031 15.8393C82.3057 15.5206 82.04 15.2522 81.7261 15.0545C81.3742 14.8449 80.9719 14.7409 80.565 14.7544C80.1525 14.7394 79.7442 14.8434 79.3865 15.0545C79.0764 15.2485 78.8142 15.5133 78.6204 15.8282C78.4185 16.1648 78.2781 16.5361 78.2059 16.9242C78.1251 17.346 78.0851 17.7749 78.0865 18.2047C78.0861 18.6277 78.1297 19.0495 78.2167 19.463C78.2922 19.848 78.4356 20.2157 78.64 20.5479C78.8356 20.8598 79.1022 21.1184 79.4169 21.3015C79.7686 21.5008 80.1654 21.6013 80.5672 21.5928C80.9542 21.6131 81.3394 21.5269 81.6829 21.3432C82.0264 21.1594 82.3156 20.8848 82.5205 20.5479ZM90.5767 8.76306H87.714V23.5113H90.5767V8.76306ZM99.9742 13.0714C100.615 13.4068 101.171 13.8909 101.598 14.4853C102.029 15.0932 102.34 15.781 102.516 16.5106C102.706 17.286 102.774 18.0875 102.717 18.8849H95.1952C95.2357 19.8364 95.4715 20.5256 95.9027 20.9524C96.3339 21.3793 96.9517 21.5927 97.7561 21.5927C98.2868 21.6069 98.8087 21.4515 99.2493 21.1481C99.6023 20.9338 99.8728 20.6018 100.015 20.2077H102.539C102.137 21.4882 101.519 22.4041 100.686 22.9555C99.7752 23.5333 98.7185 23.824 97.6476 23.7914C96.8923 23.7994 96.1425 23.6598 95.4382 23.3801C94.8047 23.1299 94.2332 22.7388 93.7649 22.2352C93.2971 21.7226 92.9367 21.1173 92.7058 20.4567C92.4467 19.7296 92.3167 18.9609 92.3217 18.1868C92.3165 17.4282 92.4459 16.6749 92.7037 15.9637C92.9422 15.2996 93.3115 14.6928 93.7886 14.1811C94.2658 13.6693 94.8406 13.2636 95.4773 12.9891C96.163 12.689 96.902 12.5376 97.6476 12.5445C98.4535 12.5233 99.2522 12.7042 99.9742 13.0714ZM95.3276 16.3239C95.2592 16.5525 95.2148 16.788 95.1952 17.0264H99.8548C99.7731 16.4049 99.5252 15.8186 99.1386 15.3323C98.7957 14.947 98.2748 14.7543 97.576 14.7543C97.1832 14.7405 96.7928 14.822 96.4366 14.9922C96.1552 15.1319 95.9071 15.333 95.7095 15.5813C95.536 15.8008 95.4062 16.0531 95.3276 16.3239ZM104.775 23.5136H106.147V16.4885H113.042V15.2924H106.147V9.96133H113.91V8.76306H104.775V23.5136ZM115.381 12.8535H116.651V23.5135H115.381V12.8535ZM116.651 8.76306H115.381V10.8506H116.651V8.76306ZM125.536 12.8336C125.989 13.0005 126.394 13.281 126.715 13.6495C127.023 14.0219 127.24 14.465 127.346 14.9412C127.473 15.503 127.535 16.0784 127.528 16.6552V23.518H126.257V16.8664C126.26 16.4394 126.22 16.0133 126.137 15.5948C126.063 15.2269 125.915 14.8787 125.703 14.5721C125.493 14.2763 125.211 14.0418 124.885 13.8918C124.481 13.7129 124.044 13.6279 123.604 13.6428C123.136 13.634 122.672 13.7296 122.244 13.923C121.858 14.0998 121.513 14.3599 121.235 14.6855C120.948 15.0258 120.727 15.4188 120.583 15.8438C120.425 16.3125 120.34 16.804 120.332 17.2999V23.5247H119.062V12.8536H120.332V14.6899H120.371C120.621 14.0355 121.08 13.487 121.673 13.1337C122.284 12.7429 122.991 12.5385 123.711 12.5446C124.331 12.527 124.95 12.6249 125.536 12.8336ZM137.846 21.6327V15.9726C137.869 15.3712 137.752 14.7729 137.503 14.2275C137.3 13.8077 136.994 13.4486 136.616 13.1848C136.244 12.9322 135.826 12.7597 135.387 12.6779C134.935 12.5896 134.476 12.545 134.016 12.5446C133.458 12.5385 132.902 12.608 132.362 12.7513C131.891 12.8756 131.449 13.0931 131.06 13.3916C130.689 13.687 130.391 14.0678 130.191 14.5031C129.964 15.0101 129.834 15.5574 129.809 16.1149H131.07C131.096 15.2479 131.366 14.618 131.878 14.2252C132.455 13.8114 133.149 13.6042 133.853 13.6361C134.208 13.6342 134.562 13.6654 134.912 13.7295C135.22 13.7835 135.515 13.8991 135.78 14.0696C136.028 14.2356 136.23 14.4657 136.364 14.7366C136.518 15.0757 136.593 15.4474 136.581 15.8215C136.589 16.0608 136.552 16.2995 136.47 16.524C136.403 16.6908 136.296 16.837 136.158 16.9486C136.007 17.0599 135.834 17.1358 135.652 17.1709C135.45 17.2131 135.218 17.2465 134.947 17.2754C134.261 17.3584 133.585 17.4443 132.92 17.5333C132.304 17.6097 131.701 17.7658 131.125 17.9979C130.623 18.1969 130.181 18.5282 129.844 18.9583C129.523 19.3785 129.36 19.9587 129.36 20.7035C129.348 21.1832 129.442 21.6595 129.634 22.0974C129.804 22.4771 130.06 22.81 130.38 23.0689C130.709 23.3307 131.086 23.5207 131.489 23.6269C131.933 23.746 132.391 23.805 132.85 23.8025C133.294 23.8097 133.737 23.7612 134.17 23.658C134.517 23.5696 134.851 23.4304 135.159 23.2445C135.452 23.0632 135.717 22.8384 135.945 22.5776C136.196 22.2864 136.429 21.979 136.642 21.6572H136.681C136.68 21.91 136.696 22.1627 136.731 22.4131C136.76 22.6228 136.834 22.8232 136.948 23C137.059 23.1698 137.217 23.3026 137.401 23.3823C137.648 23.4828 137.913 23.529 138.178 23.518C138.323 23.5199 138.468 23.5125 138.612 23.4957C138.725 23.4824 138.858 23.4624 139.005 23.4357V22.3397C138.878 22.3961 138.74 22.4242 138.601 22.422C138.096 22.4175 137.846 22.1574 137.846 21.6327ZM136.577 19.3807C136.585 19.8658 136.485 20.3464 136.284 20.7857C136.096 21.1888 135.828 21.5477 135.498 21.8395C135.157 22.1376 134.763 22.3642 134.337 22.5064C133.888 22.6581 133.418 22.7332 132.946 22.7287C132.651 22.7288 132.357 22.68 132.077 22.5842C131.805 22.4926 131.551 22.3485 131.331 22.1596C131.118 21.9744 130.943 21.7477 130.817 21.4927C130.685 21.22 130.619 20.9187 130.626 20.6145C130.612 20.3914 130.645 20.1679 130.724 19.9592C130.802 19.7505 130.923 19.5615 131.079 19.4052C131.414 19.1043 131.81 18.8827 132.238 18.756C132.748 18.5954 133.271 18.4809 133.801 18.4136C134.372 18.338 134.927 18.2521 135.465 18.1558C135.667 18.1213 135.867 18.073 136.062 18.0112C136.157 17.9911 136.248 17.9514 136.328 17.8944C136.407 17.8375 136.475 17.7646 136.527 17.68H136.568L136.577 19.3807ZM146.831 12.8335C147.284 13.0005 147.69 13.281 148.01 13.6494C148.322 14.0207 148.543 14.4638 148.652 14.9411C148.779 15.5029 148.841 16.0784 148.834 16.6551V23.5179H147.565V16.8663C147.567 16.4393 147.526 16.0131 147.443 15.5947C147.37 15.2265 147.222 14.8781 147.009 14.572C146.799 14.2762 146.517 14.0417 146.191 13.8918C145.787 13.7128 145.35 13.6278 144.911 13.6428C144.442 13.6339 143.978 13.7295 143.55 13.9229C143.164 14.0997 142.819 14.3598 142.541 14.6854C142.254 15.0257 142.033 15.4188 141.889 15.8437C141.731 16.3124 141.646 16.8039 141.638 17.2998V23.5246H140.368V12.8536H141.638V14.6899H141.679C141.926 14.0374 142.38 13.4892 142.968 13.1337C143.579 12.7428 144.286 12.5384 145.006 12.5445C145.626 12.5267 146.245 12.6247 146.831 12.8335ZM158.314 20.9015C158.149 21.2588 157.925 21.5838 157.65 21.8619C157.382 22.1296 157.067 22.3431 156.721 22.491C156.37 22.6421 155.993 22.7177 155.612 22.7133C155.057 22.7258 154.508 22.5902 154.019 22.3198C153.57 22.0658 153.18 21.7127 152.88 21.2861C152.571 20.8451 152.339 20.3524 152.194 19.8299C151.883 18.7412 151.883 17.5839 152.194 16.4952C152.339 15.973 152.571 15.4803 152.88 15.0391C153.181 14.6132 153.57 14.2609 154.019 14.0075C154.508 13.7372 155.057 13.6016 155.612 13.614C156.459 13.614 157.118 13.8415 157.589 14.2965C158.089 14.8086 158.427 15.4634 158.557 16.1751H159.827C159.682 14.9509 159.222 14.0357 158.447 13.4295C157.629 12.8086 156.63 12.4882 155.612 12.5203C154.886 12.5028 154.165 12.6549 153.505 12.9649C152.911 13.253 152.385 13.6685 151.962 14.1832C151.537 14.7079 151.216 15.3118 151.016 15.9617C150.584 17.3813 150.584 18.9016 151.016 20.3212C151.216 20.9712 151.537 21.5752 151.962 22.0998C152.383 22.6143 152.91 23.0272 153.505 23.3091C154.166 23.6161 154.886 23.768 155.612 23.7538C156.794 23.7538 157.762 23.3921 158.516 22.6689C159.27 21.9456 159.734 20.9371 159.907 19.6432H158.633C158.604 20.0792 158.496 20.5058 158.314 20.9015ZM169.437 14.4143C169.817 14.9982 170.087 15.6496 170.234 16.3351C170.394 17.0566 170.462 17.7965 170.436 18.536H162.429C162.432 19.0277 162.496 19.5171 162.62 19.9921C162.74 20.4789 162.949 20.9382 163.234 21.346C163.523 21.7531 163.892 22.0939 164.317 22.3464C164.79 22.6198 165.327 22.7559 165.869 22.7399C166.791 22.7385 167.514 22.4902 168.04 21.9952C168.585 21.4585 168.962 20.7685 169.125 20.0121H170.394C170.125 21.2171 169.631 22.1501 168.912 22.8111C168.193 23.4721 167.174 23.8026 165.856 23.8026C165.124 23.821 164.396 23.6689 163.729 23.358C163.152 23.0797 162.65 22.6615 162.266 22.1397C161.88 21.5996 161.596 20.9893 161.431 20.3412C161.246 19.6374 161.154 18.9114 161.157 18.1825C161.157 17.4846 161.249 16.7898 161.431 16.1172C161.6 15.4679 161.884 14.8556 162.266 14.3098C162.652 13.7735 163.152 13.3353 163.729 13.0293C164.389 12.6921 165.119 12.5257 165.856 12.5446C166.559 12.5175 167.257 12.675 167.884 13.0023C168.511 13.3295 169.046 13.8156 169.437 14.4143ZM162.753 16.0305C162.586 16.4868 162.474 16.9625 162.421 17.4466H169.151C169.139 16.9612 169.054 16.4804 168.899 16.0216C168.754 15.5819 168.534 15.1723 168.248 14.8122C167.965 14.4606 167.615 14.1723 167.219 13.9652C166.794 13.7465 166.323 13.6366 165.848 13.6451C165.365 13.6354 164.888 13.7453 164.456 13.9652C164.06 14.1723 163.71 14.4606 163.428 14.8122C163.138 15.177 162.91 15.5888 162.753 16.0305Z" fill="#6E6E6E"/>
</svg>
