<svg width="187" height="46" viewBox="0 0 187 46" fill="none" xmlns="http://www.w3.org/2000/svg">
<g clip-path="url(#clip0)">
<path d="M16.0262 18.2051C16.0262 18.0181 15.9639 17.8312 15.9016 17.5195L11.9767 6.79863C11.4783 5.48969 10.793 4.92871 9.73385 4.92871C8.61244 4.92871 7.92714 5.48969 7.49103 6.79863L3.5038 17.5195C3.3792 17.8935 3.31689 18.0805 3.31689 18.2051C3.31689 18.7661 3.753 19.2024 4.376 19.2024C4.87441 19.2024 5.24821 18.9531 5.49741 18.3298L6.80573 14.6523H12.662L13.9703 18.3298C14.1572 18.9531 14.531 19.2024 15.0294 19.2024C15.5901 19.2648 16.0262 18.7661 16.0262 18.2051ZM7.42873 12.7824L9.36005 7.23494C9.42235 7.04795 9.48465 6.98562 9.67155 6.98562C9.79615 6.98562 9.85846 7.04795 9.92076 7.23494L11.8521 12.7824H7.42873ZM33.9065 19.1401H38.1429C40.8841 19.1401 42.5663 17.5195 42.5663 14.7146C42.5663 12.0344 40.9464 10.5385 38.1429 10.5385H34.4049V7.11028H40.6349C41.3202 7.11028 41.7564 6.7363 41.7564 6.05066C41.7564 5.42736 41.3202 5.05337 40.6349 5.05337H33.8442C32.7851 5.05337 32.1621 5.61435 32.1621 6.7363V17.4572C32.2867 18.5791 32.8474 19.1401 33.9065 19.1401ZM34.4672 12.4707H37.956C39.5758 12.4707 40.3234 13.3433 40.3234 14.7769C40.3234 16.2729 39.5758 17.1455 37.956 17.1455H34.4672V12.4707ZM9.98306 31.9802H5.80892V27.6171H12.7243C13.1604 27.6171 13.5342 27.3677 13.5342 26.9314C13.5342 26.4951 13.2227 26.2458 12.7243 26.2458H5.62202C4.81211 26.2458 4.376 26.6821 4.376 27.4924V39.1482C4.376 39.9585 4.81211 40.3948 5.62202 40.3948H9.98306C12.662 40.3948 14.2195 38.8366 14.2195 36.1564C14.2195 33.4761 12.662 31.9802 9.98306 31.9802ZM9.79615 38.9612H5.80892V33.2891H9.79615C11.8521 33.2891 12.7243 34.2864 12.7243 36.094C12.7243 37.9016 11.9144 38.9612 9.79615 38.9612ZM20.0758 29.6116C18.8297 29.6116 17.646 29.9233 17.023 30.2349C16.5869 30.4219 16.4 30.6089 16.4 30.9829C16.4 31.3569 16.7115 31.6062 17.023 31.6062C17.2099 31.6062 17.3968 31.5439 17.5837 31.4192C18.0821 31.2322 19.0166 30.9206 19.9511 30.9206C21.7579 30.9206 22.6301 31.6686 22.6301 33.2891V34.2864C21.5087 33.9748 20.6988 33.8501 19.7019 33.8501C17.023 33.8501 15.7147 35.4084 15.7147 37.0913C15.7147 39.1482 17.2722 40.4572 19.6396 40.4572C21.6333 40.4572 23.1908 39.7715 23.7515 39.3352C24.0007 39.1482 24.063 39.0236 24.063 38.7119V33.2268C24.0007 30.7959 22.5055 29.6116 20.0758 29.6116ZM22.5678 38.4626C21.7579 38.8989 20.6988 39.2106 19.7642 39.2106C18.0198 39.2106 17.023 38.4626 17.023 37.1536C17.023 35.9694 17.8952 35.1591 19.7642 35.1591C20.6988 35.1591 21.5087 35.2837 22.5678 35.5954V38.4626ZM59.6989 8.41923C57.8299 8.41923 56.3347 9.10486 55.774 9.41652C55.2756 9.72817 55.2133 9.91516 55.2133 10.7255V21.571C55.2133 22.2566 55.6494 22.6929 56.2724 22.6929C56.8954 22.6929 57.3315 22.2566 57.3315 21.571V18.7661C57.9545 19.0778 58.9513 19.3271 59.8858 19.3271C62.3778 19.3271 64.06 17.7065 64.2469 15.3379C64.3092 14.5276 64.3092 13.2187 64.2469 12.4084C64.06 10.0398 62.3778 8.41923 59.6989 8.41923ZM62.1286 15.0263C62.004 16.3975 61.1318 17.2702 59.6366 17.2702C58.8267 17.2702 57.8299 17.0209 57.3315 16.6469V11.0371C57.8299 10.6631 58.8267 10.4138 59.6366 10.4138C61.1941 10.4138 62.004 11.3488 62.1286 12.6577C62.1909 13.4057 62.1909 14.2783 62.1286 15.0263ZM26.3058 17.3948L22.6301 13.7173L26.1189 10.2268C26.3681 9.97749 26.555 9.66584 26.555 9.35419C26.555 8.85554 26.1812 8.48156 25.6205 8.48156C25.309 8.48156 25.0598 8.60622 24.8106 8.91787L21.1972 12.4707C21.0103 12.6577 20.8234 12.7824 20.5119 12.7824H19.7642V9.66584C19.7642 8.9802 19.3281 8.54389 18.7051 8.54389C18.0821 8.54389 17.646 8.9802 17.646 9.66584V18.0805C17.646 18.7661 18.0821 19.2024 18.7051 19.2024C19.3281 19.2024 19.7642 18.7661 19.7642 18.0805V14.7146H20.3873C20.6365 14.7146 20.8857 14.8393 21.0726 15.0263L24.8729 18.8284C25.1844 19.1401 25.4336 19.2648 25.7451 19.2648C26.3058 19.2648 26.6796 18.8908 26.6796 18.3298C26.6796 17.9558 26.555 17.7065 26.3058 17.3948ZM74.1526 15.2756C73.6542 15.2756 73.405 15.5872 73.2181 15.8989C72.8443 16.7092 72.0967 17.2702 70.9753 17.2702C69.4801 17.2702 68.5456 16.3352 68.421 15.0263C68.3587 14.2783 68.3587 13.468 68.421 12.72C68.5456 11.3488 69.4178 10.4761 70.9753 10.4761C72.0344 10.4761 72.8443 11.0371 73.2181 11.8474C73.405 12.1591 73.6542 12.4707 74.1526 12.4707C74.7757 12.4707 75.2118 12.0967 75.2118 11.4734C75.2118 11.1618 75.0872 10.8501 74.9003 10.4761C74.2773 9.29185 72.9066 8.41923 70.9753 8.41923C68.3587 8.41923 66.6143 10.1022 66.3651 12.4707C66.3028 13.281 66.3028 14.59 66.3651 15.3379C66.6143 17.7065 68.3587 19.3894 70.9753 19.3894C72.9066 19.3894 74.2773 18.4545 74.9003 17.2702C75.0872 16.8962 75.2118 16.5845 75.2118 16.2729C75.1495 15.6496 74.7757 15.2756 74.1526 15.2756ZM48.4225 8.41923C47.2388 8.41923 46.1797 8.73088 45.4944 8.9802C44.9337 9.22952 44.6845 9.54118 44.6845 9.97749C44.6845 10.4761 45.0583 10.9125 45.5567 10.9125C45.8059 10.9125 46.0551 10.7878 46.3666 10.7255C46.8027 10.5385 47.5503 10.3515 48.2979 10.3515C49.9177 10.3515 50.603 10.9748 50.603 12.2214V13.094C49.6685 12.8447 48.8586 12.72 47.9864 12.72C45.3075 12.72 43.9992 14.2783 43.9992 15.8989C43.9992 17.8312 45.4944 19.3271 48.0487 19.3271C50.0423 19.3271 51.5998 18.6414 52.2228 18.2051C52.5343 18.0181 52.5967 17.8312 52.5967 17.3948V12.2214C52.659 9.60351 51.1014 8.41923 48.4225 8.41923ZM50.603 16.9585C49.98 17.2702 49.1078 17.5195 48.2979 17.5195C46.9273 17.5195 46.0551 16.8962 46.0551 15.8989C46.0551 14.9639 46.8027 14.216 48.2979 14.216C49.1078 14.216 49.7931 14.3406 50.6653 14.59V16.9585H50.603ZM41.7564 34.9721L45.8059 30.9206C45.9928 30.7336 46.0551 30.5466 46.0551 30.3596C46.0551 30.048 45.8059 29.7363 45.4321 29.7363C45.2452 29.7363 45.0583 29.7986 44.8714 29.9856L40.8841 33.9748C40.6349 34.2241 40.448 34.3488 40.1365 34.3488H39.4512V30.5466C39.4512 30.048 39.202 29.7986 38.7659 29.7986C38.3298 29.7986 38.0806 30.048 38.0806 30.5466V39.7715C38.0806 40.2702 38.3298 40.5195 38.7659 40.5195C39.202 40.5195 39.4512 40.2702 39.4512 39.7715V35.6577H40.1988C40.5103 35.6577 40.7595 35.7824 40.9464 36.0317L45.1829 40.2702C45.3698 40.4572 45.5567 40.5195 45.7436 40.5195C46.1174 40.5195 46.3666 40.2078 46.3666 39.8962C46.3666 39.6469 46.3043 39.5222 46.0551 39.2729L41.7564 34.9721ZM34.5295 29.674C34.0934 29.674 33.8442 29.9233 33.8442 30.4219V34.2241H27.9879V30.4219C27.9879 29.9233 27.7387 29.674 27.3026 29.674C26.8665 29.674 26.6173 29.9233 26.6173 30.4219V39.6469C26.6173 40.1455 26.8665 40.3948 27.3026 40.3948C27.7387 40.3948 27.9879 40.1455 27.9879 39.6469V35.533H33.8442V39.6469C33.8442 40.1455 34.0934 40.3948 34.5295 40.3948C34.9656 40.3948 35.2148 40.1455 35.2148 39.6469V30.4219C35.2148 29.9856 34.9656 29.674 34.5295 29.674Z" fill="#212121"/>
<path d="M142.357 17.5245L134.565 18.9512C133.291 19.206 132.426 20.4289 132.629 21.7027C132.884 22.9766 134.106 23.8428 135.38 23.639L143.172 22.2123C145.005 21.8556 146.177 22.9766 146.635 24.1485C147.093 25.3205 146.992 26.9001 145.413 27.9192L134.005 35.3585C132.935 36.0719 131.662 36.0719 130.541 35.5114C129.421 34.8999 128.759 33.7789 128.759 32.5051V14.2124C128.759 11.1552 127.18 8.50555 124.481 7.02788C121.832 5.5502 118.675 5.70306 116.128 7.3336L87.3019 26.0338C84.0424 28.123 82.8201 31.9446 84.2461 35.5623C85.6722 39.1801 89.1863 41.1163 93.0061 40.4539L118.165 35.919C119.439 35.6642 120.304 34.4413 120.101 33.1675C119.846 31.8936 118.624 31.0274 117.35 31.2312L92.1912 35.7661C90.3068 36.1228 89.1863 35.0018 88.728 33.8299C88.2696 32.6579 88.3714 31.0783 89.9503 30.0592L118.777 11.359C119.846 10.6456 121.119 10.6456 122.24 11.2061C123.36 11.8176 124.022 12.9386 124.022 14.2124V32.5051C124.022 35.5623 125.601 38.2119 128.3 39.6896C129.523 40.352 130.898 40.7087 132.222 40.7087C133.75 40.7087 135.278 40.2501 136.653 39.3839L148.112 31.9446C151.372 29.8554 152.594 26.0338 151.168 22.4161C149.691 18.7983 146.177 16.8111 142.357 17.5245ZM182.693 22.3651C181.267 18.7474 177.753 16.8111 173.933 17.4735L166.141 18.9002C164.868 19.155 164.002 20.3779 164.206 21.6518C164.461 22.9256 165.683 23.7919 166.956 23.588L174.748 22.1613C176.582 21.8046 177.753 22.9256 178.212 24.0976C178.67 25.2695 178.568 26.8491 176.989 27.8682L165.581 35.3585C164.511 36.0719 163.238 36.0719 162.118 35.5114C160.997 34.8999 160.335 33.7789 160.335 32.5051V8.40364C160.335 7.07883 159.266 6.00879 157.941 6.00879C156.617 6.00879 155.548 7.07883 155.548 8.40364V32.5051C155.548 35.5623 157.127 38.2119 159.826 39.6896C161.048 40.352 162.423 40.7087 163.747 40.7087C165.275 40.7087 166.803 40.2501 168.178 39.3839L179.638 31.9446C182.897 29.8045 184.119 25.9829 182.693 22.3651Z" fill="#009B3A"/>
</g>
<defs>
<clipPath id="clip0">
<rect width="187" height="46" fill="white"/>
</clipPath>
</defs>
</svg>
